<?xml version="1.0" encoding="UTF-8"?>
<!DOCTYPE svg PUBLIC "-//W3C//DTD SVG 1.1//EN" "http://www.w3.org/Graphics/SVG/1.1/DTD/svg11.dtd">
<!-- Creator: CorelDRAW 2020 (64-Bit) -->
<svg xmlns="http://www.w3.org/2000/svg" xml:space="preserve" width="94.1916mm" height="52.9166mm" version="1.1" style="shape-rendering:geometricPrecision; text-rendering:geometricPrecision; image-rendering:optimizeQuality; fill-rule:evenodd; clip-rule:evenodd"
viewBox="0 0 9404.92 5283.66"
 xmlns:xlink="http://www.w3.org/1999/xlink"
 xmlns:xodm="http://www.corel.com/coreldraw/odm/2003">
 <defs>
  <style type="text/css">
   <![CDATA[
    .str0 {stroke:#A3A3A3;stroke-width:17.6;stroke-miterlimit:22.9256}
    .fil10 {fill:#107C41}
    .fil8 {fill:#185C37}
    .fil9 {fill:#21A366}
    .fil13 {fill:#33C481}
    .fil0 {fill:#E6E7E8}
    .fil12 {fill:white}
    .fil6 {fill:#185C37;fill-rule:nonzero}
    .fil14 {fill:#919191;fill-rule:nonzero}
    .fil5 {fill:#A3A3A3;fill-rule:nonzero}
    .fil4 {fill:#DBDBDB;fill-rule:nonzero}
    .fil7 {fill:#F4F4F4;fill-rule:nonzero}
    .fil3 {fill:white;fill-rule:nonzero}
    .fil2 {fill:#373435;fill-opacity:0.031373}
    .fil1 {fill:#2B2A29;fill-opacity:0.101961}
    .fil11 {fill:url(#id0)}
   ]]>
  </style>
  <linearGradient id="id0" gradientUnits="userSpaceOnUse" x1="2386.3" y1="4043.16" x2="3015.89" y2="2955.44">
   <stop offset="0" style="stop-opacity:1; stop-color:#18884F"/>
   <stop offset="0.501961" style="stop-opacity:1; stop-color:#117E43"/>
   <stop offset="1" style="stop-opacity:1; stop-color:#0B6631"/>
  </linearGradient>
 </defs>
 <g id="Layer_x0020_1">
  <metadata id="CorelCorpID_0Corel-Layer"/>
  <polygon class="fil0" points="-0,0 9404.92,0 9404.92,5283.66 -0,5283.66 "/>
  <path class="fil1" d="M6471.12 1055.97l-43.6 23.92 0 -89.31 0.44 -4.39 1.28 -4.09 2.01 -3.7 2.67 -3.23 3.23 -2.67 -377.67 208.54 -1.79 -2.16 -2.02 -3.7 -1.27 -4.08 -0.45 -4.38 0.45 -4.38 1.27 -4.08 2.02 -3.7 2.68 -3.23 3.23 -2.68 -207.1 114.57 -2541.41 0 0 -252.91 -3315.07 2040.13 0 221.46 0 286.04 0 187.05 0 189.87 0 17.14 0 16.28 0 30.57 0 117.97 0 16.91 0 32.78 0 42.61 0 12.99 0 30.57 0 46.85 0 8.53 0 16.22 0 18.75 0 132.94 0 9.03 0 9.31 0 6.69 0 5.16 0 0.39 0 0.92 0 0.79 0 21.65 0 4.47 0 76.66 0 50.14 0 12.17 0 3.18 0 53.29 0 30.55 0 11.69 0 6.26 0 22.18 0 1.25 0 0.54 0 31.06 0 1.14 0 14 0 15.78 0 39.49 0 3.51 0 19.25 0 4.18 0 52.95 0 6.13 0 14.31 0 10.1 0 6.07 0 52.41 0 0.01 0 4.53 0 0.12 0 1.03 0 57.64 0 22.44 0 32.31 0 20.31 0 26.42 0 30.56 0 2.99 0 6.55 0 6.08 29.53 0 377 0 61.04 0 11.66 0 65.05 0 4.75 0 17.64 0 22.6 0 135.36 0 16.39 0 182.02 0 28.15 0 35.58 0 256.57 0 48.74 0 82.58 0 196.05 0 205.78 0 378.04 0 17.25 0 16.72 0 91.78 0 524.4 0 109.82 0 436.55 0 289.44 0 280.28 0 445.71 0 148.77 0 436.58 0 22.08 0 2136.14 -915.28 -10.66 3.92 -11.12 2.88 -11.51 1.78 -11.84 0.6 -469.18 0 585.43 -254.97 -651.36 0 651.36 -289.87 -637.83 0 637.83 -289.91 -624.74 0 624.74 -289.89 -612.17 0 612.17 -289.87 -600.13 0 600.13 -289.87 -588.63 0 588.63 -289.9 -577.44 0 577.44 -289.87 -566.79 0 566.79 -289.91 -745.3 0 0 -145.85 745.32 -394.42 -351.23 0 161.07 -86.23 -1.99 0.93 -2.06 0.72 -2.11 0.51 -2.14 0.31 -2.15 0.1 -2.15 -0.1 -2.14 -0.31 -2.11 -0.51 -2.06 -0.72 -1.99 -0.92 -1.92 -1.13 -1.82 -1.34 -1.71 -1.54 -62.63 -62.64 -99.73 53.77 -0.81 -2.73 -0.41 -4.28 0.41 -4.28 1.24 -4.15 2.05 -3.9 2.88 -3.52 62.63 -62.63 -9.45 -9.45 41.19 -22.29 62.63 -62.64 3.52 -2.87 -126.52 68.61 -34 -34 -2.88 -3.52 -2.05 -3.9 -1.24 -4.15 -0.41 -4.28 0.41 -4.28 1.24 -4.16 2.05 -3.9 2.88 -3.52 3.52 -2.87 -207.55 113.12 0 -38.53 -132.55 0zm-6471.12 1994.46l0 -56.53 0 -0.01 3366.44 -2079.91 0 0.01 -8.96 6.7 0 0.01 -8.27 7.5 0 0.01 -7.52 8.26 0 0.01 -6.71 8.95 0 0.01 -5.83 9.58 0 0.01 -4.91 10.14 0 0.01 -3.92 10.65 0 0.01 -2.88 11.1 0 0.01 -1.78 11.5 0 0.01 -0.6 11.83 0 0.01 -3315.07 2040.13z"/>
  <path class="fil2" d="M578.49 4627.69c17.95,27.21 29.6,53.36 40.96,82.43 8.45,16.91 12.93,48.09 52.57,48.09 11.61,0 28.28,-3.42 43.06,-11.61 16.63,-8.73 29.32,-21.94 35.94,-42l15.85 -53.36 38.57 -19.02 2.64 2.64c-5.27,20.09 -6.59,39.36 -6.59,54.43 0,44.63 38.57,61.56 69.22,61.56 17.95,0 34.09,-8.73 34.09,-25.11 0,-21.13 -8.98,-57.06 -20.62,-89.29 17.95,-17.95 35.94,-35.94 56.53,-50.47l3.17 1.6c8.98,38.04 14,75.56 14,100.66 0,24.57 -10.83,51.79 -19.81,69.49 -18.49,34.87 -51.25,62.62 -90.87,62.62 -30.1,0 -63.65,-15.07 -86.66,-43.06l-1.32 0c-21.66,26.96 -55.22,51.25 -108.86,51.25l-16.63 0c-2.64,35.41 -10.29,60.49 -21.94,82.95 -31.95,62.34 -126.81,106.47 -216.1,106.47 -124.17,0 -186.51,-71.59 -186.51,-166.96 0,-58.91 19.27,-113.6 48.88,-152.42l24.29 10.04c-18.49,35.41 -30.91,68.68 -30.91,101.45 0,89.29 72.66,131.83 156.4,131.83 77.68,0 173.83,-49.41 191.28,-106.72 -6.59,-62.62 -30.1,-91.93 -66.04,-148.99 10.83,-19.02 24.83,-38.04 42.28,-58.38l3.17 0 0 0 0 0 -0.02 -0.09zm1432.13 -336.04c26.15,16.39 51.79,35.66 76.87,57.85 -14,19.81 -31.45,37.79 -53.11,53.64 -25.11,-20.34 -50.19,-37.79 -75.84,-56.27 17.42,-19.55 34.62,-38.29 52.04,-55.22l0 0 0 0 0 0 0 0 0 0 0.03 0zm13.47 244.11c-42.28,0 -76.87,27.75 -76.87,48.34 0,44.13 84.53,57.85 185.72,57.31 -12.68,-51.79 -57.06,-105.68 -108.86,-105.68l0.01 0.03zm-94.86 236.19c54.96,0 103.04,-1.6 139.74,-10.83 40.96,-10.29 75.56,-30.91 75.56,-45.17 0,-3.7 0,-8.19 -1.32,-11.89 -22.98,2.11 -49.41,2.11 -72.38,2.11 -74.49,0 -131.55,-16.91 -154.02,-58.66 -5.55,-11.61 -9.51,-24.57 -9.51,-39.36 0,-40.43 17.42,-79.79 48.09,-107 25.61,-22.45 53.89,-36.44 82.67,-36.44 52.04,0 93.51,41.75 122.57,107.54 15.85,35.94 26.68,77.4 26.68,129.72 0,34.87 -9.51,64.19 -31.17,85.85 -40.43,39.11 -114.92,53.89 -229.04,53.89l-51.79 0 0 0 -13.47 0c-28.28,0 -48.62,-5.02 -64.72,-17.42l-2.64 0c0.79,6.59 1.32,12.93 1.32,19.02 0,25.61 -8.45,58.38 -25.61,84.53 -50.72,75.3 -105.68,108.04 -153.24,108.04 -48.09,0 -107,-18.49 -160.11,-42.54l9.51 -18.49c17.17,7.13 40.96,11.89 73.7,11.89 85.85,0 198.66,-82.43 212.66,-163 -3.17,-6.59 -8.98,-15.32 -17.17,-24.57 -25.11,-29.85 -40.96,-54.68 -55.75,-80.83 12.68,-25.11 24.29,-45.17 35.13,-63.4l4.49 -0.53c36.72,74.77 69.99,117.55 144.23,117.55l11.61 0 0 0 53.89 0 0 0 0 0 0 0 0 0 0 0 0.09 0.01zm-371.98 79c6.34,-34.34 6.87,-72.91 6.87,-108.86l0 -53.36c0,-99.6 -12.68,-244.36 -22.98,-338.68 17.95,-19.27 43.06,-42 62.87,-57.31l5.81 1.6c13.47,118.62 16.63,256 16.63,383.06 0,33.3 -1.32,65.79 -4.49,89.55 -1.85,30.1 -19.27,52.83 -56.53,87.7l-8.19 -3.7zm-382.8 -157.19c1.85,46.77 24.83,83.49 105.15,83.49 49.93,0 92.19,-12.93 138.96,-35.13 8.45,-3.7 12.93,-8.73 12.93,-12.93 0,-29.32 -22.45,-68.15 -60.23,-103.55 -36.72,-33.3 -85.34,-62.62 -130.76,-82.18 -15.6,-6.59 -20.62,-13.47 -20.62,-20.09 0,-13.47 17.95,-41.75 32.77,-62.09l5.02 -0.53c52.04,27.21 110.17,67.64 153.24,112.53 39.11,41.47 63.4,83.49 63.4,129.19 0,33.81 -10.29,65.51 -26.96,95.11 -57.06,28.79 -117.83,50.72 -178.06,50.72 -73.17,0 -123.1,-34.34 -123.1,-114.92 0,-8.73 0,-22.19 3.17,-39.64l25.11 0 0 0 0 0 0 0 0 0 0 0 -0.02 0zm-132.37 -132.9l45.45 73.45c16.63,27.21 32.23,56.81 32.23,103.55l0 59.7c0,48.34 -30.91,100.13 -80.83,151.38 -39.11,34.62 -73.7,49.41 -105.68,49.41 -47.55,0 -101.98,-14.79 -164.85,-41.75l7.13 -18.49c19.81,5.27 42.79,9.77 71.06,9.77 90.36,-0.53 182.8,-66.57 225.08,-147.15 5.02,-9.26 6.87,-17.95 6.87,-24.04 0,-9.26 -5.02,-19.55 -8.98,-28.79 -22.98,-43.31 -48.62,-82.95 -76.87,-119.68 14.79,-23.25 29.6,-45.7 45.7,-67.9l3.7 0.53 0 0 0 0 0 0 0 0 0 0 -0.02 0.01z"/>
  <g id="_2365901745904">
   <path class="fil3 str0" d="M7181.15 4261.3c0,63.93 -52.31,116.25 -116.25,116.25l-3633.58 0c-63.93,0 -116.24,-52.3 -116.24,-116.25l0 -3251.01c0,-63.93 52.31,-116.23 116.24,-116.23l3633.58 0c63.94,0 116.25,52.3 116.25,116.23l0 3251.01z"/>
   <polygon class="fil4" points="4060.36,1803.48 4095.25,1803.48 4095.25,1589.87 4060.36,1589.87 "/>
   <polygon class="fil4" points="4840.55,1803.48 4875.46,1803.48 4875.46,1589.87 4840.55,1589.87 "/>
   <polygon class="fil4" points="5620.76,1803.48 5655.66,1803.48 5655.66,1589.87 5620.76,1589.87 "/>
   <polygon class="fil4" points="6400.94,1803.48 6435.85,1803.48 6435.85,1589.87 6400.94,1589.87 "/>
   <polygon class="fil5" points="4060.36,4377.54 4095.25,4377.54 4095.25,1803.48 4060.36,1803.48 "/>
   <polygon class="fil5" points="4840.55,4377.54 4875.46,4377.54 4875.46,1803.48 4840.55,1803.48 "/>
   <polygon class="fil5" points="5620.76,4377.54 5655.66,4377.54 5655.66,1803.48 5620.76,1803.48 "/>
   <polygon class="fil5" points="6400.94,4377.54 6435.85,4377.54 6435.85,1803.48 6400.94,1803.48 "/>
   <polygon class="fil5" points="7181.15,2058.47 7181.15,2093.39 3315.05,2093.39 3315.05,2058.47 "/>
   <polygon class="fil5" points="7181.15,2348.35 7181.15,2383.26 3315.05,2383.26 3315.05,2348.35 "/>
   <polygon class="fil5" points="7181.15,2638.26 7181.15,2673.16 3315.05,2673.16 3315.05,2638.26 "/>
   <polygon class="fil5" points="7181.15,2928.15 7181.15,2963.03 3315.05,2963.03 3315.05,2928.15 "/>
   <polygon class="fil5" points="7181.15,3218.02 7181.15,3252.91 3315.05,3252.91 3315.05,3218.02 "/>
   <polygon class="fil5" points="7181.15,3507.89 7181.15,3542.8 3315.05,3542.8 3315.05,3507.89 "/>
   <polygon class="fil5" points="7181.15,3797.8 7181.15,3832.71 3315.05,3832.71 3315.05,3797.8 "/>
   <polygon class="fil5" points="7181.15,4087.67 7181.15,4122.58 3315.05,4122.58 3315.05,4087.67 "/>
   <path class="fil6" d="M7064.89 894.07l-3633.58 0c-63.93,0 -116.24,52.3 -116.24,116.23l0 252.91 3866.1 0 0 -252.91c0,-63.93 -52.3,-116.23 -116.23,-116.23l-0.04 0z"/>
   <path class="fil7" d="M6933.79 1078.62l62.63 -62.63c8.77,-8.77 8.77,-22.97 0,-31.74 -8.77,-8.74 -22.97,-8.74 -31.73,0l-62.63 62.64 -62.63 -62.64c-8.78,-8.74 -22.98,-8.74 -31.74,0 -8.76,8.78 -8.76,22.98 0,31.74l62.63 62.63 -62.63 62.63c-8.76,8.77 -8.76,22.97 0,31.74 4.39,4.38 10.13,6.56 15.88,6.56 5.74,0 11.49,-2.19 15.88,-6.56l62.63 -62.64 62.63 62.64c4.39,4.38 10.13,6.56 15.88,6.56 5.74,0 11.48,-2.19 15.87,-6.56 8.77,-8.78 8.77,-22.98 0,-31.74l-62.63 -62.63 -0.02 0z"/>
   <path class="fil7" d="M6625.45 968.77l-176.12 0c-12.04,0 -21.81,9.78 -21.81,21.81l0 176.13c0,12.03 9.77,21.81 21.81,21.81l176.12 0c12.04,0 21.81,-9.78 21.81,-21.81l0 -176.13c0,-12.03 -9.77,-21.81 -21.81,-21.81zm-154.33 176.13l0 0 0 -88.94 132.55 0 0 88.94 -132.55 0z"/>
   <path class="fil7" d="M6273.67 1166.71c0,11.96 -9.82,21.81 -21.8,21.81l-176.13 0c-11.98,0 -21.8,-9.82 -21.8,-21.81 0,-11.99 9.82,-21.81 21.8,-21.81l176.13 0c11.98,0 21.8,9.82 21.8,21.81z"/>
   <path class="fil8" d="M3405.71 3461.7l-745.85 -130.42 0 976.8c0,44.82 35.32,81.53 81.53,81.53l0 0 1291.99 0c44.82,0 81.53,-35.32 81.53,-81.53l0 0 0 -357.3 -703.74 -483.63 -2.72 -2.72 0 0 2.72 -2.71 -2.72 0 0 0 0 0 -2.71 0 -0.03 -0.03z"/>
   <path class="fil9" d="M3405.71 2623.47l-665.71 0c-44.82,0 -81.52,35.32 -81.52,81.53 0,0 0,0 0,0l0 357.29 745.84 437.47 395.36 130.42 308.38 -130.42 0 -437.47 -703.71 -437.46 0 0 0 0 -2.71 0 2.71 0 0 0 1.36 -1.36z"/>
   <polygon class="fil10" points="2662.58,3065.01 3405.71,3065.01 3405.71,3506.54 2662.58,3506.54 "/>
   <path class="fil11" d="M2305.28 3016.09l804.25 0c44.81,0 81.52,35.32 81.52,81.52l0 804.25c0,44.82 -35.32,81.53 -81.52,81.53l-804.25 0c-44.82,0 -81.53,-35.33 -81.53,-81.53l0 -804.25c0,-44.82 35.32,-81.52 81.53,-81.52z"/>
   <path class="fil12" d="M2471.04 3766.01l172.54 -262.2 -152.16 -259.49 126.34 0 81.53 168.46c6.77,16.31 13.59,25.8 16.3,35.33l0 0c6.78,-13.59 9.52,-25.8 19.02,-35.33l93.73 -165.74 116.82 0 -158.95 259.51 161.66 262.19 -123.63 0 -97.83 -182.03c-6.78,-6.82 -9.52,-16.31 -9.52,-25.84l-2.71 0c-2.71,9.53 -6.79,16.31 -9.53,23.12l-100.54 182.04 -123.63 0 -2.72 2.71 -6.78 0 2.71 -2.71 -2.71 0 0 0 0.06 -0.02z"/>
   <path class="fil13" d="M4032.02 2623.47l-623.58 0 0 437.47 703.71 0 0 -357.3c0,-44.85 -35.32,-81.52 -81.52,-81.52l0 0 2.71 0 0 0 -2.71 0 1.35 1.35 0.03 0z"/>
   <polygon class="fil10" points="3405.71,3506.54 4109.45,3506.54 4109.45,3941.26 3405.71,3941.26 "/>
   <polygon class="fil14" points="7181.15,1803.48 3315.05,1803.48 3315.05,1589.87 7181.15,1589.87 "/>
  </g>
 </g>
</svg>
